<svg xmlns="http://www.w3.org/2000/svg" viewBox="0 0 320 240" role="img" aria-labelledby="title"><title id="title">Assisted Pull Up</title><defs><marker id="motion-arrow" viewBox="0 0 10 10" refX="8" refY="5" markerWidth="4.5" markerHeight="4.5" markerUnits="userSpaceOnUse" orient="auto-start-reverse"><path d="M0 0 10 5 0 10Z" fill="hsl(28 55% 52%)" opacity=".55"/></marker></defs><rect width="320" height="240" rx="28" fill="hsl(28 42% 93%)"/><path d="M34 40H286" stroke="#8b96aa" stroke-width="9"/><path d="M211 43C220 97 214 151 183 188C173 200 161 192 167 179C192 145 199 94 195 43" fill="none" stroke="#8b96aa" stroke-width="5" stroke-dasharray="7 6"/><g data-pose="start" fill="none" stroke="hsl(28 42% 76%)" stroke-width="8" stroke-linecap="round" stroke-linejoin="round"><circle cx="150" cy="95" r="13"/><path d="M150 111V154M150 116L120 40M150 116L180 40M150 154L135 204M150 154L165 204"/></g><g data-pose="finish" fill="none" stroke="#18233a" stroke-width="10" stroke-linecap="round" stroke-linejoin="round"><circle cx="150" cy="55" r="13"/><path d="M150 71V118M150 78L125 83L110 40M150 78L175 83L190 40M150 118L134 169M150 118L174 145L162 178"/></g><path d="M258 153C266 128 266 102 258 79" fill="none" stroke="hsl(28 55% 52%)" stroke-width="4" stroke-linecap="round" opacity=".72" marker-end="url(#motion-arrow)"/><path d="M42 210H278" stroke="hsl(28 65% 48%)" stroke-width="7" stroke-linecap="round"/></svg>