<svg xmlns="http://www.w3.org/2000/svg" viewBox="0 0 320 240" role="img" aria-labelledby="title"><title id="title">Forward Lunge</title><defs><marker id="motion-arrow" viewBox="0 0 10 10" refX="8" refY="5" markerWidth="4.5" markerHeight="4.5" markerUnits="userSpaceOnUse" orient="auto-start-reverse"><path d="M0 0 10 5 0 10Z" fill="hsl(208 55% 52%)" opacity=".55"/></marker></defs><rect width="320" height="240" rx="28" fill="hsl(208 42% 93%)"/><g data-pose="start" fill="none" stroke="hsl(208 42% 76%)" stroke-width="8" stroke-linecap="round" stroke-linejoin="round"><circle cx="170" cy="45" r="16"/><path d="M170 64V137M170 86L136 118M170 86L204 118M170 137L152 204M170 137L188 204"/></g><g data-pose="finish" fill="none" stroke="#18233a" stroke-width="10" stroke-linecap="round" stroke-linejoin="round"><circle cx="178" cy="54" r="16"/><path d="M178 73L184 137M181 92L147 118M181 92L215 121M184 137L119 164L68 204M184 137L226 164L249 204"/></g><path d="M135 127C112 136 91 151 75 171" fill="none" stroke="hsl(208 55% 52%)" stroke-width="4" stroke-linecap="round" opacity=".72" marker-end="url(#motion-arrow)"/><path d="M42 210H278" stroke="hsl(208 65% 48%)" stroke-width="7" stroke-linecap="round"/></svg>