<svg xmlns="http://www.w3.org/2000/svg" viewBox="0 0 320 240" style="--pose-background:hsl(160 42% 93%)" role="img" aria-labelledby="title"><title id="title">Hip Flexor Stretch</title><defs><marker id="motion-arrow" viewBox="0 0 10 10" refX="8" refY="5" markerWidth="8" markerHeight="8" markerUnits="userSpaceOnUse" orient="auto-start-reverse"><path d="M0 0 10 5 0 10Z" fill="hsl(160 55% 52%)" opacity="1"/></marker></defs><rect width="320" height="240" rx="28" fill="hsl(160 42% 93%)"/><g data-pose="start" fill="none" stroke="hsl(160 42% 76%)" stroke-width="8" stroke-linecap="round" stroke-linejoin="round"><g data-anatomy="joint-chains"><path data-part="neck" d="M147 74L147 86"/><path data-part="torso" d="M147 86L147 140"/><path data-part="arm-0" d="M147 86L173 113L191 150"/><path data-part="leg-0" d="M147 140L195 153L197 204"/><path data-part="leg-1" d="M147 140L114 202L66 202"/><circle data-part="head" cx="147" cy="62" r="12" fill="var(--pose-background)"/><path data-part="face" stroke-width="3" d="M158 60l4 4"/></g></g><g data-pose="finish" fill="none" stroke="#18233a" stroke-width="10" stroke-linecap="round" stroke-linejoin="round"><g data-anatomy="joint-chains"><path data-part="neck" d="M159 74L159 86"/><path data-part="torso" d="M159 86L159 140"/><path data-part="arm-0" d="M159 86L185 113L191 150"/><path data-part="leg-0" d="M159 140L195 153L197 204"/><path data-part="leg-1" d="M159 140L114 202L66 202"/><circle data-part="head" cx="159" cy="62" r="12" fill="var(--pose-background)"/><path data-part="face" stroke-width="3" d="M170 60l4 4"/></g></g><path d="M152 163H178" fill="none" stroke="hsl(160 55% 52%)" stroke-width="4" stroke-linecap="round" opacity=".72" marker-end="url(#motion-arrow)"/><path d="M42 210H278" stroke="hsl(160 65% 48%)" stroke-width="7" stroke-linecap="round"/></svg>