<svg xmlns="http://www.w3.org/2000/svg" viewBox="0 0 320 240" role="img" aria-labelledby="title"><title id="title">Jumping Jack</title><defs><marker id="motion-arrow" viewBox="0 0 10 10" refX="8" refY="5" markerWidth="4.5" markerHeight="4.5" markerUnits="userSpaceOnUse" orient="auto-start-reverse"><path d="M0 0 10 5 0 10Z" fill="hsl(4 55% 52%)" opacity=".55"/></marker></defs><rect width="320" height="240" rx="28" fill="hsl(4 42% 93%)"/><g data-pose="start" fill="none" stroke="hsl(4 42% 76%)" stroke-width="8" stroke-linecap="round" stroke-linejoin="round"><circle cx="160" cy="51" r="16"/><path d="M160 70V144M160 91L128 123M160 91L192 123M160 144L143 204M160 144L177 204"/></g><g data-pose="finish" fill="none" stroke="#18233a" stroke-width="10" stroke-linecap="round" stroke-linejoin="round"><circle cx="160" cy="51" r="16"/><path d="M160 70V144M160 91L91 43M160 91L229 43M160 144L105 204M160 144L215 204"/></g><path d="M237 103C251 88 256 70 251 53" fill="none" stroke="hsl(4 55% 52%)" stroke-width="4" stroke-linecap="round" opacity=".72" marker-end="url(#motion-arrow)"/><path d="M42 210H278" stroke="hsl(4 65% 48%)" stroke-width="7" stroke-linecap="round"/></svg>