<svg xmlns="http://www.w3.org/2000/svg" viewBox="0 0 320 240" style="--pose-background:hsl(276 42% 93%)" role="img" aria-labelledby="title"><title id="title">Mountain Climber</title><defs><marker id="motion-arrow" viewBox="0 0 10 10" refX="8" refY="5" markerWidth="8" markerHeight="8" markerUnits="userSpaceOnUse" orient="auto-start-reverse"><path d="M0 0 10 5 0 10Z" fill="hsl(276 55% 52%)" opacity="1"/></marker></defs><rect width="320" height="240" rx="28" fill="hsl(276 42% 93%)"/><g data-pose="start" fill="none" stroke="hsl(276 42% 76%)" stroke-width="8" stroke-linecap="round" stroke-linejoin="round"><g data-anatomy="joint-chains"><path data-part="neck" d="M227.14913757857414 117.8527738583832L214 127"/><path data-part="torso" d="M214 127L147 151"/><path data-part="arm-0" d="M214 127L218 166L225 204"/><path data-part="leg-0" d="M147 151L97 180L48 204"/><path data-part="leg-1" d="M147 151L151 187L104 204"/><circle data-part="head" cx="237" cy="111" r="12" fill="var(--pose-background)"/><path data-part="face" stroke-width="3" d="M248 109l4 4"/></g></g><g data-pose="finish" fill="none" stroke="#18233a" stroke-width="10" stroke-linecap="round" stroke-linejoin="round"><g data-anatomy="joint-chains"><path data-part="neck" d="M227.14913757857414 117.8527738583832L214 127"/><path data-part="torso" d="M214 127L147 151"/><path data-part="arm-0" d="M214 127L218 166L225 204"/><path data-part="leg-0" d="M147 151L97 180L48 204"/><path data-part="leg-1" d="M147 151L195 177L154 201"/><circle data-part="head" cx="237" cy="111" r="12" fill="var(--pose-background)"/><path data-part="face" stroke-width="3" d="M248 109l4 4"/></g></g><path d="M153 188L182 177" fill="none" stroke="hsl(276 55% 52%)" stroke-width="4" stroke-linecap="round" opacity=".72" marker-end="url(#motion-arrow)"/><path d="M42 210H278" stroke="hsl(276 65% 48%)" stroke-width="7" stroke-linecap="round"/></svg>