<svg xmlns="http://www.w3.org/2000/svg" viewBox="0 0 320 240" role="img" aria-labelledby="title"><title id="title">Pull Up</title><defs><marker id="motion-arrow" viewBox="0 0 10 10" refX="8" refY="5" markerWidth="4.5" markerHeight="4.5" markerUnits="userSpaceOnUse" orient="auto-start-reverse"><path d="M0 0 10 5 0 10Z" fill="hsl(28 55% 52%)" opacity=".55"/></marker></defs><rect width="320" height="240" rx="28" fill="hsl(28 42% 93%)"/><path d="M66 38h188M92 38v28M228 38v28" fill="none" stroke="hsl(28 65% 48%)" stroke-width="8" stroke-linecap="round"/><circle cx="160" cy="141" r="15" fill="none" stroke="hsl(28 42% 76%)" stroke-width="7"/><path d="M160 158v48M160 163 94 64M160 163l66-99" fill="none" stroke="hsl(28 42% 76%)" stroke-width="8" stroke-linecap="round"/><circle cx="160" cy="92" r="18" fill="none" stroke="#18233a" stroke-width="9"/><path d="M160 114v62M160 126 94 64M160 126l66-62M160 176l-31 34M160 176l31 34" fill="none" stroke="#18233a" stroke-width="11" stroke-linecap="round" stroke-linejoin="round"/><path d="M269 154c6-13 5-27-2-39" fill="none" stroke="hsl(28 55% 52%)" stroke-width="4.5" stroke-linecap="round" opacity=".72" marker-end="url(#motion-arrow)"/><path d="M44 210h232" stroke="hsl(28 65% 48%)" stroke-width="7" stroke-linecap="round"/></svg>