<svg xmlns="http://www.w3.org/2000/svg" viewBox="0 0 320 240" role="img" aria-labelledby="title"><title id="title">Side Plank</title><defs><marker id="motion-arrow" viewBox="0 0 10 10" refX="8" refY="5" markerWidth="4.5" markerHeight="4.5" markerUnits="userSpaceOnUse" orient="auto-start-reverse"><path d="M0 0 10 5 0 10Z" fill="hsl(276 55% 52%)" opacity=".55"/></marker></defs><rect width="320" height="240" rx="28" fill="hsl(276 42% 93%)"/><g data-pose="start" fill="none" stroke="hsl(276 42% 76%)" stroke-width="8" stroke-linecap="round" stroke-linejoin="round"><circle cx="111" cy="178" r="12"/><path d="M97 182L64 192L27 204M89 185L79 204M64 192L48 204"/></g><g data-pose="finish" fill="none" stroke="#18233a" stroke-width="10" stroke-linecap="round" stroke-linejoin="round"><circle cx="257" cy="88" r="13"/><path d="M242 98L188 132L126 181L103 204M188 138L135 188L116 204M230 105L215 160L226 204M230 105L238 58"/></g><path d="M156 171C166 150 168 127 160 106" fill="none" stroke="hsl(276 55% 52%)" stroke-width="4" stroke-linecap="round" opacity=".72" marker-end="url(#motion-arrow)"/><path d="M42 210H278" stroke="hsl(276 65% 48%)" stroke-width="7" stroke-linecap="round"/></svg>