<svg xmlns="http://www.w3.org/2000/svg" viewBox="0 0 320 240" role="img" aria-labelledby="title"><title id="title">Split Squat</title><defs><marker id="motion-arrow" viewBox="0 0 10 10" refX="8" refY="5" markerWidth="4.5" markerHeight="4.5" markerUnits="userSpaceOnUse" orient="auto-start-reverse"><path d="M0 0 10 5 0 10Z" fill="hsl(208 55% 52%)" opacity=".55"/></marker></defs><rect width="320" height="240" rx="28" fill="hsl(208 42% 93%)"/><g data-pose="start" fill="none" stroke="hsl(208 42% 76%)" stroke-width="8" stroke-linecap="round" stroke-linejoin="round"><circle cx="160" cy="45" r="16"/><path d="M160 64V137M160 86L126 116M160 86L194 116M160 137L105 204M160 137L225 204"/></g><g data-pose="finish" fill="none" stroke="#18233a" stroke-width="10" stroke-linecap="round" stroke-linejoin="round"><circle cx="160" cy="65" r="16"/><path d="M160 84V143M160 102L126 125M160 102L194 125M160 143L112 160L77 204M160 143L211 161L245 204"/></g><path d="M266 85C270 109 261 131 243 145" fill="none" stroke="hsl(208 55% 52%)" stroke-width="4" stroke-linecap="round" opacity=".72" marker-end="url(#motion-arrow)"/><path d="M42 210H278" stroke="hsl(208 65% 48%)" stroke-width="7" stroke-linecap="round"/></svg>