<svg xmlns="http://www.w3.org/2000/svg" viewBox="0 0 320 240" role="img" aria-labelledby="title"><title id="title">Squat</title><defs><marker id="motion-arrow" viewBox="0 0 10 10" refX="8" refY="5" markerWidth="4.5" markerHeight="4.5" markerUnits="userSpaceOnUse" orient="auto-start-reverse"><path d="M0 0 10 5 0 10Z" fill="hsl(16 55% 52%)" opacity=".55"/></marker></defs><rect width="320" height="240" rx="28" fill="hsl(16 42% 93%)"/><path d="M160 138l-20 67M160 138l20 67M160 91l-30 62M160 91l30 62" fill="none" stroke="hsl(16 42% 76%)" stroke-width="8" stroke-linecap="round"/><circle cx="160" cy="50" r="18" fill="none" stroke="#18233a" stroke-width="9"/><path d="M160 72v66M160 91l-48 29M160 91l48 29M160 138l-43 35-28 31M160 138l43 35 28 31" fill="none" stroke="#18233a" stroke-width="11" stroke-linecap="round" stroke-linejoin="round"/><path d="M230 105c8 14 9 28 3 41" fill="none" stroke="hsl(16 55% 52%)" stroke-width="4.5" stroke-linecap="round" opacity=".72" marker-end="url(#motion-arrow)"/><path d="M44 210h232" stroke="hsl(16 65% 48%)" stroke-width="7" stroke-linecap="round"/></svg>